#!OML:ASF H:\IndianDance\Patient Classification 1\Patient 1\Session 1\dancer.ASF
:FULLY-SPECIFIED
:DEGREES
3241
root 10.5299 14.9545 11.43 -173.428 -8.5547 -171.81
lowerback 7.30877 4.95892 3.05249
upperback 1.51331 6.73525 2.05682
thorax -2.40604 3.26843 -0.190556
lowerneck -12.4278 -8.96808 -8.07605
upperneck 29.1469 -20.459 16.5372
head 14.9745 -8.96802 4.15738
rclavicle -1.05107e-014 4.99446e-015
rhumerus -31.2956 13.5515 -99.4548
rradius 47.9419
rwrist -7.64127
rhand -14.6746 7.83685
rfingers 7.12502
rthumb 11.4786 -21.8289
lclavicle -1.05107e-014 4.99446e-015
lhumerus -48.1228 8.62531 79.2478
lradius 23.1069
lwrist 1.59044
lhand -20.2153 16.3617
lfingers 7.12502
lthumb 6.13199 -313.747
rfemur 161.581 204.689 -139.86
rtibia 50.7353
rfoot 176.329 -164.084
rtoes 11.0867
lfemur -39.2947 26.4198 -38.4279
ltibia 51.0182
lfoot -12.2186 8.09871
ltoes -24.2657
3242
root 10.4524 14.9637 11.4879 -173.69 -8.4837 -171.706
lowerback 7.35197 4.88422 3.14603
upperback 1.6868 6.62365 2.29296
thorax -2.26997 3.20668 0.0145614
lowerneck -12.5573 -8.67066 -7.77213
upperneck 29.5911 -20.1706 16.2877
head 15.0819 -8.83179 4.07183
rclavicle -3.926e-014 -4.77083e-015
rhumerus -31.0004 11.2266 -98.1552
rradius 47.3021
rwrist -7.42028
rhand -16.6207 8.22059
rfingers 7.12502
rthumb 9.60131 -21.5406
lclavicle -3.926e-014 -4.77083e-015
lhumerus -48.1949 8.12382 80.0132
lradius 22.8018
lwrist 0.0868967
lhand -18.1362 15.582
lfingers 7.12502
lthumb 8.13886 -314.595
rfemur 161.93 204.337 -139.97
rtibia 50.3563
rfoot 175.466 -164.566
rtoes 10.4267
lfemur -39.275 26.4315 -38.4071
ltibia 51.234
lfoot -11.5829 7.38559
ltoes -24.4988
3243
root 10.3764 14.9726 11.5454 -173.951 -8.45282 -171.601
lowerback 7.38922 4.79698 3.23755
upperback 1.86846 6.492 2.53644
thorax -2.12288 3.13415 0.23088
lowerneck -12.69 -8.37696 -7.48978
upperneck 30.0238 -19.8729 16.0374
head 15.1887 -8.69303 3.99018
rclavicle 1.635e-014 1.11319e-014
rhumerus -30.7578 8.8389 -96.8425
rradius 46.7557
rwrist -7.2657
rhand -18.3752 8.56409
rfingers 7.12502
rthumb 7.90818 -21.268
lclavicle 1.635e-014 1.11319e-014
lhumerus -48.1921 7.55361 80.838
lradius 22.5605
lwrist -1.44871
lhand -15.8835 14.7414
lfingers 7.12502
lthumb 10.3125 -315.531
rfemur 162.274 203.971 -140.05
rtibia 49.9576
rfoot 174.587 -165.148
rtoes 9.55754
lfemur -39.272 26.3957 -38.3283
ltibia 51.534
lfoot -10.9336 6.56823
ltoes -24.7974
3244
root 10.302 14.9811 11.6026 -174.205 -8.45212 -171.482
lowerback 7.42208 4.70375 3.335
upperback 2.04986 6.35007 2.78848
thorax -1.97323 3.05546 0.453895
lowerneck -12.833 -8.0938 -7.22481
upperneck 30.4558 -19.5757 15.7735
head 15.3008 -8.55597 3.90429
rclavicle 1.21209e-013 1.70955e-014
rhumerus -30.5994 6.42877 -95.5317
rradius 46.342
rwrist -7.23871
rhand -19.971 8.8018
rfingers 7.12502
rthumb 6.36785 -21.0825
lclavicle 1.21209e-013 1.70955e-014
lhumerus -48.1253 6.89672 81.7074
lradius 22.4149
lwrist -2.92128
lhand -13.4936 13.9166
lfingers 7.12502
lthumb 12.6174 -316.484
rfemur 162.606 203.585 -140.083
rtibia 49.539
rfoot 173.717 -165.833
rtoes 8.60328
lfemur -39.3003 26.3187 -38.172
ltibia 51.9261
lfoot -10.2905 5.6137
ltoes -25.1291
3245
root 10.2296 14.9894 11.6592 -174.443 -8.44741 -171.357
lowerback 7.44202 4.61501 3.4287
upperback 2.22845 6.21131 3.0377
thorax -1.81847 2.97777 0.676715
lowerneck -12.9421 -7.82572 -7.01395
upperneck 30.8343 -19.2897 15.56
head 15.399 -8.42798 3.84557
rclavicle -3.97569e-015 1.68967e-014
rhumerus -30.5381 4.03751 -94.2418
rradius 46.073
rwrist -7.36558
rhand -21.3674 8.93912
rfingers 7.12502
rthumb 5.01959 -20.9814
lclavicle -3.97569e-015 1.68967e-014
lhumerus -48.0007 6.1859 82.5767
lradius 22.3658
lwrist -4.30141
lhand -10.9249 13.1017
lfingers 7.12502
lthumb 15.0929 -317.469
rfemur 162.928 203.157 -140.088
rtibia 49.1051
rfoot 172.879 -166.614
rtoes 7.65872
lfemur -39.3703 26.2273 -37.9468
ltibia 52.4093
lfoot -9.66679 4.5044
ltoes -25.5784
3246
root 10.1587 14.9968 11.7149 -174.665 -8.43521 -171.22
lowerback 7.44921 4.53097 3.52998
upperback 2.39958 6.0772 3.28227
thorax -1.66208 2.90185 0.890863
lowerneck -13.0163 -7.5752 -6.85908
upperneck 31.1612 -19.0183 15.3959
head 15.4834 -8.31092 3.81347
rclavicle -1.68967e-015 2.44505e-014
rhumerus -30.5774 1.69363 -92.9819
rradius 45.9341
rwrist -7.67833
rhand -22.6126 8.95737
rfingers 7.12502
rthumb 3.81724 -20.9882
lclavicle -1.68967e-015 2.44505e-014
lhumerus -47.8309 5.43119 83.4245
lradius 22.4207
lwrist -5.54861
lhand -8.22132 12.3424
lfingers 7.12502
lthumb 17.6959 -318.443
rfemur 163.237 202.71 -140.061
rtibia 48.6627
rfoot 172.067 -167.473
rtoes 6.62453
lfemur -39.4784 26.1142 -37.6346
ltibia 52.9818
lfoot -9.10318 3.25122
ltoes -26.2908
3247
root 10.0889 15.0032 11.7697 -174.866 -8.41919 -171.1
lowerback 7.44732 4.45355 3.6295
upperback 2.56116 5.95127 3.50026
thorax -1.50706 2.83029 1.07826
lowerneck -13.0548 -7.34821 -6.74427
upperneck 31.4293 -18.7786 15.2898
head 15.552 -8.20967 3.80545
rclavicle -1.98785e-015 -3.02153e-014
rhumerus -30.7197 -0.583954 -91.774
rradius 45.9223
rwrist -8.23301
rhand -23.7678 8.85222
rfingers 7.12502
rthumb 2.70157 -21.1104
lclavicle -1.98785e-015 -3.02153e-014
lhumerus -47.6168 4.60161 84.2415
lradius 22.5797
lwrist -6.60285
lhand -5.47696 11.6997
lfingers 7.12502
lthumb 20.3351 -319.345
rfemur 163.527 202.272 -140.043
rtibia 48.2248
rfoot 171.283 -168.375
rtoes 5.53207
lfemur -39.6096 25.9664 -37.2595
ltibia 53.629
lfoot -8.67784 1.86902
ltoes -27.2845
3248
root 10.0201 15.008 11.8235 -175.036 -8.36574 -170.993
lowerback 7.43037 4.39283 3.72398
upperback 2.70692 5.84768 3.69157
thorax -1.35709 2.77048 1.23956
lowerneck -13.0656 -7.14416 -6.66797
upperneck 31.6561 -18.5693 15.2261
head 15.6111 -8.12417 3.81525
rclavicle 3.76697e-014 3.02153e-014
rhumerus -30.969 -2.75104 -90.6202
rradius 46.0167
rwrist -9.06111
rhand -24.8385 8.6627
rfingers 7.12502
rthumb 1.66756 -21.3105
lclavicle 3.76697e-014 3.02153e-014
lhumerus -47.377 3.64245 85.0578
lradius 22.8461
lwrist -7.3437
lhand -2.75553 11.2052
lfingers 7.12502
lthumb 22.9486 -320.141
rfemur 163.79 201.823 -140.034
rtibia 47.8049
rfoot 170.541 -169.283
rtoes 4.49852
lfemur -39.778 25.8038 -36.8219
ltibia 54.3386
lfoot -8.4466 0.387844
ltoes -28.5781
3249
root 9.95169 15.0112 11.8762 -175.177 -8.28002 -170.919
lowerback 7.40367 4.34548 3.80358
upperback 2.83393 5.76309 3.84907
thorax -1.21874 2.72125 1.37254
lowerneck -13.0559 -6.95905 -6.60111
upperneck 31.8535 -18.3843 15.1791
head 15.6595 -8.05034 3.82847
rclavicle -2.51463e-014 -2.54444e-014
rhumerus -31.3189 -4.79035 -89.5125
rradius 46.1755
rwrist -10.1185
rhand -25.8271 8.40299
rfingers 7.12502
rthumb 0.712692 -21.5756
lclavicle -2.51463e-014 -2.54444e-014
lhumerus -47.1276 2.54902 85.8638
lradius 23.2125
lwrist -7.73347
lhand -0.168594 10.8857
lfingers 7.12502
lthumb 25.4289 -320.79
rfemur 164.024 201.384 -140.069
rtibia 47.4166
rfoot 169.831 -170.168
rtoes 3.53223
lfemur -39.9592 25.6065 -36.3331
ltibia 55.0929
lfoot -8.45811 -1.10653
ltoes -30.008
3250
root 9.88368 15.0127 11.9278 -175.287 -8.16937 -170.895
lowerback 7.36743 4.30403 3.85008
upperback 2.94179 5.68767 3.96774
thorax -1.09412 2.67818 1.4827
lowerneck -13.0317 -6.78601 -6.55453
upperneck 32.0331 -18.2147 15.1502
head 15.7037 -7.98515 3.84948
rclavicle 3.00165e-014 1.35174e-014
rhumerus -31.7501 -6.67101 -88.4536
rradius 46.3521
rwrist -11.398
rhand -26.7221 8.10854
rfingers 7.12502
rthumb -0.151652 -21.8711
lclavicle 3.00165e-014 1.35174e-014
lhumerus -46.8602 1.4832 86.5543
lradius 23.6281
lwrist -7.9259
lhand 2.18762 10.7226
lfingers 7.12502
lthumb 27.684 -321.295
rfemur 164.224 200.962 -140.172
rtibia 47.0691
rfoot 169.149 -170.99
rtoes 2.65392
lfemur -40.1409 25.3657 -35.8146
ltibia 55.8805
lfoot -8.74406 -2.48592
ltoes -31.5646
3251
root 9.81478 15.0127 11.9781 -175.386 -8.03507 -170.917
lowerback 7.33967 4.26518 3.89447
upperback 3.03512 5.61961 4.04434
thorax -0.985066 2.64024 1.54881
lowerneck -13.0071 -6.62108 -6.506
upperneck 32.2107 -18.0538 15.1147
head 15.7475 -7.92419 3.8654
rclavicle 7.05686e-014 -1.39149e-014
rhumerus -32.243 -8.39471 -87.4313
rradius 46.492
rwrist -12.8213
rhand -27.4837 7.79078
rfingers 7.12502
rthumb -0.887236 -22.1871
lclavicle 7.05686e-014 -1.39149e-014
lhumerus -46.5715 0.469055 87.1132
lradius 24.0724
lwrist -7.93351
lhand 4.24725 10.704
lfingers 7.12502
lthumb 29.6517 -321.646
rfemur 164.41 200.565 -140.354
rtibia 46.7669
rfoot 168.491 -171.73
rtoes 1.90662
lfemur -40.2929 25.0748 -35.2563
ltibia 56.6941
lfoot -9.32757 -3.61157
ltoes -33.134
3252
root 9.74582 15.0124 12.0271 -175.472 -7.87466 -170.994
lowerback 7.32327 4.22942 3.9126
upperback 3.11391 5.55885 4.08173
thorax -0.89607 2.60745 1.58681
lowerneck -12.9837 -6.46144 -6.45077
upperneck 32.3873 -17.8934 15.0645
head 15.7884 -7.86398 3.8735
rclavicle -4.19436e-014 -1.15295e-014
rhumerus -32.774 -9.93218 -86.4484
rradius 46.5536
rwrist -14.3695
rhand -28.1591 7.43131
rfingers 7.12502
rthumb -1.53956 -22.5429
lclavicle -4.19436e-014 -1.15295e-014
lhumerus -46.2625 -0.488101 87.5438
lradius 24.5316
lwrist -7.7846
lhand 5.83986 10.814
lfingers 7.12502
lthumb 31.1707 -321.817
rfemur 164.581 200.175 -140.62
rtibia 46.5085
rfoot 167.857 -172.388
rtoes 1.23849
lfemur -40.4218 24.7449 -34.6649
ltibia 57.5359
lfoot -10.1182 -4.38012
ltoes -34.3893
3253
root 9.67644 15.0121 12.075 -175.55 -7.68722 -171.123
lowerback 7.32125 4.19439 3.91272
upperback 3.18192 5.50238 4.08288
thorax -0.824459 2.57815 1.59545
lowerneck -12.9618 -6.30491 -6.39707
upperneck 32.5588 -17.7263 15.0028
head 15.8248 -7.80194 3.87803
rclavicle -7.65321e-015 3.57812e-015
rhumerus -33.3144 -11.2871 -85.489
rradius 46.4851
rwrist -15.9197
rhand -28.65 7.01429
rfingers 7.12502
rthumb -2.01373 -22.956
lclavicle -7.65321e-015 3.57812e-015
lhumerus -45.9154 -1.29 87.8065
lradius 24.9638
lwrist -7.6124
lhand 6.8987 10.9858
lfingers 7.12502
lthumb 32.1793 -321.844
rfemur 164.74 199.786 -140.969
rtibia 46.2911
rfoot 167.256 -172.96
rtoes 0.703969
lfemur -40.5229 24.38 -34.0433
ltibia 58.4081
lfoot -11.0156 -4.67658
ltoes -35.272
3254
root 9.60679 15.012 12.122 -175.63 -7.47664 -171.281
lowerback 7.34603 4.16177 3.91011
upperback 3.24146 5.45292 4.05816
thorax -0.774234 2.55305 1.57608
lowerneck -12.9402 -6.15541 -6.34264
upperneck 32.7232 -17.5551 14.9234
head 15.8543 -7.73917 3.87541
rclavicle -3.37934e-014 -1.90833e-014
rhumerus -33.8421 -12.4774 -84.5429
rradius 46.2484
rwrist -17.3707
rhand -28.9673 6.50799
rfingers 7.12502
rthumb -2.3201 -23.4591
lclavicle -3.37934e-014 -1.90833e-014
lhumerus -45.5265 -1.98173 87.9333
lradius 25.3712
lwrist -7.38742
lhand 7.38816 11.2053
lfingers 7.12502
lthumb 32.6451 -321.72
rfemur 164.892 199.388 -141.371
rtibia 46.1094
rfoot 166.694 -173.469
rtoes 0.203636
lfemur -40.5962 23.985 -33.3692
ltibia 59.3158
lfoot -11.8945 -4.47331
ltoes -35.6607
3255
root 9.53672 15.0129 12.1683 -175.717 -7.24719 -171.468
lowerback 7.39341 4.12791 3.90929
upperback 3.29961 5.40456 4.00845
thorax -0.735423 2.52913 1.52828
lowerneck -12.9158 -6.01215 -6.28853
upperneck 32.8692 -17.3764 14.8336
head 15.8715 -7.67385 3.86937
rclavicle 3.49861e-014 -2.10712e-014
rhumerus -34.329 -13.5008 -83.6136
rradius 45.8143
rwrist -18.6409
rhand -29.1019 5.88565
rfingers 7.12502
rthumb -2.4501 -24.08
lclavicle 3.49861e-014 -2.10712e-014
lhumerus -45.0856 -2.56532 87.9338
lradius 25.7377
lwrist -7.13149
lhand 7.25628 11.4103
lfingers 7.12502
lthumb 32.5196 -321.489
rfemur 165.039 198.983 -141.823
rtibia 45.9626
rfoot 166.178 -173.937
rtoes -0.288497
lfemur -40.6356 23.5605 -32.6406
ltibia 60.2535
lfoot -12.6063 -3.87053
ltoes -35.2983
